<?xml version="1.0" encoding="utf-8"?>
<!-- Generator: Adobe Illustrator 19.1.0, SVG Export Plug-In . SVG Version: 6.00 Build 0)  -->
<svg version="1.1" id="Layer_1" xmlns="http://www.w3.org/2000/svg" xmlns:xlink="http://www.w3.org/1999/xlink" x="0px" y="0px"
	 viewBox="0 0 355.8 330.6" style="enable-background:new 0 0 355.8 330.6;" xml:space="preserve">
<style type="text/css">
	.st0{fill:#4E4E56;}
	.st1{fill:#019CDB;}
</style>
<g>
	<path class="st0" d="M311,244.3L311,244.3l-37.8,0v60.4h37.5v0l0,0h0.6l0,0c12.6-0.3,21.2-8.7,21.2-20.9v-19
		C332.5,252.5,323.9,244.4,311,244.3z M324.7,284.2c0,8.2-5.9,13.3-14.5,13.3h-29.3v-46.2h28.8c8.9,0,15,5.2,15,13.4V284.2z"/>
	<g>
		<path class="st1" d="M242,282.3h-34.8v22.4h-7.7v-60.4h42.9c6.2,0,11.3,5.1,11.3,11.3v15.2C253.6,277.1,248.4,282.3,242,282.3z
			 M241,251.4h-33.8v23.8H241c2.8,0,4.9-2.2,4.9-5v-13.9C245.9,253.6,243.7,251.4,241,251.4z"/>
		<path class="st1" d="M88.7,304.7v-47.3l-23.9,47.3h-7.6l-23.9-47.3v47.3h-7.7v-60.4h9.2L60.9,296h0.2l26.2-51.8h9.2v60.4H88.7z"/>
		<path class="st1" d="M173.3,304.7l-6.1-12.9h-38.4l-6.1,12.9h-8.1v-0.2l29.3-60.2h8.4l29.3,60.2v0.2H173.3z M148,251.3l-16,33.8
			h31.9L148,251.3z"/>
		<polygon class="st1" points="45.2,57 151.1,162.9 178,162.9 39.6,24.5 26.2,24.5 26.2,196.9 78.2,196.9 78.2,177.9 45.2,177.9 		
			"/>
		<polygon class="st1" points="93.2,24.5 93.2,56.9 112.3,75.9 112.3,57 233.2,177.9 112.3,177.9 112.3,145.3 93.2,126.3 
			93.2,196.9 279.1,196.9 106.7,24.5 		"/>
	</g>
	<path class="st0" d="M318.6,196.9H332V24.5H146.2L318.6,196.9z M313,164.4L192.1,43.5H313V164.4z"/>
</g>
</svg>
